<?xml version="1.0" encoding="UTF-8" standalone="no"?>
<svg
   xmlns:dc="http://purl.org/dc/elements/1.1/"
   xmlns:cc="http://creativecommons.org/ns#"
   xmlns:rdf="http://www.w3.org/1999/02/22-rdf-syntax-ns#"
   xmlns:svg="http://www.w3.org/2000/svg"
   xmlns="http://www.w3.org/2000/svg"
   xmlns:sodipodi="http://sodipodi.sourceforge.net/DTD/sodipodi-0.dtd"
   xmlns:inkscape="http://www.inkscape.org/namespaces/inkscape"
   id="svg2344"
   version="1.1"
   viewBox="0 0 7 7"
   height="7mm"
   width="7mm"
   sodipodi:docname="research.svg"
   inkscape:version="0.92.2 5c3e80d, 2017-08-06">
  <sodipodi:namedview
     pagecolor="#ffffff"
     bordercolor="#666666"
     borderopacity="1"
     objecttolerance="10"
     gridtolerance="10"
     guidetolerance="10"
     inkscape:pageopacity="0"
     inkscape:pageshadow="2"
     inkscape:window-width="1440"
     inkscape:window-height="776"
     id="namedview15"
     showgrid="false"
     inkscape:zoom="5"
     inkscape:cx="67.539351"
     inkscape:cy="32.919204"
     inkscape:window-x="0"
     inkscape:window-y="1"
     inkscape:window-maximized="1"
     inkscape:current-layer="svg2344">
    <inkscape:grid
       type="xygrid"
       id="grid17" />
  </sodipodi:namedview>
  <defs
     id="defs2338" />
  <metadata
     id="metadata2341">
    <rdf:RDF>
      <cc:Work
         rdf:about="">
        <dc:format>image/svg+xml</dc:format>
        <dc:type
           rdf:resource="http://purl.org/dc/dcmitype/StillImage" />
        <dc:title></dc:title>
      </cc:Work>
    </rdf:RDF>
  </metadata>
  <path
     style="fill:#7f8079;fill-opacity:1;stroke-width:0.03475059"
     d="M 2.3638964,3.3519173 V 2.8306585 H 2.5724 c 0.115835,0 0.2085036,0.015445 0.2085036,0.034753 0,0.019109 0.039096,0.034753 0.086871,0.034753 0.047786,0 0.086882,0.013942 0.086882,0.030983 0,0.017041 0.039096,0.040794 0.086871,0.052787 0.056094,0.014079 0.086871,0.0462 0.086871,0.090644 0,0.037858 0.01564,0.068838 0.034751,0.068838 0.019307,0 0.034751,0.09267 0.034751,0.2085036 0,0.1158353 -0.015443,0.2085036 -0.034751,0.2085036 -0.019109,0 -0.034751,0.024575 -0.034751,0.054605 0,0.084231 -0.091129,0.1561354 -0.2255242,0.1779444 -0.067093,0.010891 -0.1219817,0.033387 -0.1219817,0.050001 0,0.016616 -0.093821,0.030202 -0.2085036,0.030202 H 2.3638855 Z"
     id="path4526"
     inkscape:connector-curvature="0"
     inkscape:transform-center-x="-0.069488392"
     inkscape:transform-center-y="-0.2780044" />
  <path
     style="fill:#7f8079;fill-opacity:1;stroke-width:0.03475059"
     d="M 0.10510671,3.5604287 V 0.15487039 H 3.5454155 6.9857243 V 3.5604287 6.965987 H 3.5454155 0.10510671 Z M 2.8091561,5.220982 C 2.8182405,5.1419455 2.8041213,5.1232226 2.7222851,5.1056371 2.5023298,5.0584004 2.4797357,5.035894 2.4562881,4.840632 2.4440296,4.7385747 2.4338726,4.5260609 2.4337085,4.3683802 2.4334195,4.0934269 2.4365485,4.081788 2.5115935,4.0841299 2.6605023,4.0887899 2.713287,4.1364159 2.8837434,4.4199782 3.1387032,4.8441158 3.3216205,5.0775249 3.50381,5.2112076 3.6540003,5.3214104 3.6871913,5.3310548 3.9189914,5.3318474 l 0.2519423,8.538e-4 v -0.101544 c 0,-0.08676 -0.018989,-0.1076449 -0.1303153,-0.1433408 C 3.9689503,5.0648318 3.8550384,4.9893425 3.787492,4.9200553 3.6553949,4.784557 3.2326677,4.2331533 3.2326677,4.1963457 c 0,-0.012266 -0.025886,-0.050902 -0.057517,-0.085853 -0.053806,-0.059451 -0.053237,-0.063596 0.00864,-0.064266 C 3.3089102,4.0449098 3.5763058,3.7668009 3.6504641,3.5609243 3.7296405,3.3411247 3.7336024,3.2817029 3.6804975,3.1111378 3.6094605,2.8830051 3.5305761,2.7528842 3.4420328,2.7177961 3.3937541,2.6986597 3.3229766,2.6704936 3.284751,2.6552056 3.2465199,2.6399109 3.168336,2.6156194 3.1109981,2.601218 2.9726043,2.5664648 2.0776358,2.5679563 1.8686649,2.6033217 1.7260288,2.6274357 1.703599,2.6424217 1.703599,2.7135888 c 0,0.062084 0.019252,0.082487 0.078192,0.082889 0.043004,2.89e-4 0.095474,0.012017 0.1165912,0.026064 0.1234375,0.082065 0.1743276,0.6705984 0.1188635,1.3746596 C 1.9496707,5.0550066 1.9467707,5.0684658 1.8249497,5.089345 1.7373887,5.104351 1.7192531,5.125103 1.710022,5.2208468 l -0.010956,0.1136803 0.5495902,-0.00958 0.5495902,-0.00958 z M 4.8008806,3.1980574 C 4.9431085,3.1378377 4.9974901,3.0546602 5.0230512,2.8582467 5.0337775,2.7761823 5.0498443,2.6503973 5.0588638,2.5787245 L 5.0752592,2.4484094 H 4.7794655 c -0.292344,0 -0.2957916,9.88e-4 -0.2957916,0.086877 0,0.078097 0.013966,0.086876 0.1381344,0.086876 0.1366787,0 0.1379275,0.00118 0.1186193,0.1129394 -0.033558,0.1942333 -0.039128,0.1998159 -0.1992822,0.1998159 -0.084266,0 -0.1693017,-0.019543 -0.1889667,-0.043441 C 4.2435161,2.7594564 4.2644217,2.1975995 4.3827147,2.0706185 4.4709217,1.9759415 4.6384584,1.9737065 4.7176131,2.0661485 4.8190848,2.1846614 5.00493,2.1372075 5.00493,1.9927845 5.00493,1.8402676 4.5917886,1.6393063 4.4298892,1.713072 4.3812162,1.735248 4.3147678,1.753676 4.2822205,1.754017 4.2496705,1.7543617 4.1722184,1.815857 4.1101029,1.8906803 L 3.9971733,2.0267257 v 0.4714702 0.4714702 l 0.1390012,0.1390026 c 0.1306392,0.1306381 0.1512937,0.1390018 0.3432626,0.1390018 0.1123423,0 0.2569924,-0.022328 0.3214435,-0.049613 z"
     id="path4530"
     inkscape:connector-curvature="0" />
</svg>
