<?xml version="1.0" encoding="UTF-8" standalone="no"?>
<svg
   xmlns:dc="http://purl.org/dc/elements/1.1/"
   xmlns:cc="http://creativecommons.org/ns#"
   xmlns:rdf="http://www.w3.org/1999/02/22-rdf-syntax-ns#"
   xmlns:svg="http://www.w3.org/2000/svg"
   xmlns="http://www.w3.org/2000/svg"
   xmlns:sodipodi="http://sodipodi.sourceforge.net/DTD/sodipodi-0.dtd"
   xmlns:inkscape="http://www.inkscape.org/namespaces/inkscape"
   id="svg2344"
   version="1.1"
   viewBox="0 0 5 5"
   height="5mm"
   width="5mm"
   sodipodi:docname="research.svg"
   inkscape:version="0.92.2 5c3e80d, 2017-08-06">
  <sodipodi:namedview
     pagecolor="#ffffff"
     bordercolor="#666666"
     borderopacity="1"
     objecttolerance="10"
     gridtolerance="10"
     guidetolerance="10"
     inkscape:pageopacity="0"
     inkscape:pageshadow="2"
     inkscape:window-width="1440"
     inkscape:window-height="776"
     id="namedview15"
     showgrid="false"
     inkscape:zoom="5"
     inkscape:cx="67.539351"
     inkscape:cy="32.919204"
     inkscape:window-x="0"
     inkscape:window-y="1"
     inkscape:window-maximized="1"
     inkscape:current-layer="svg2344">
    <inkscape:grid
       type="xygrid"
       id="grid17" />
  </sodipodi:namedview>
  <defs
     id="defs2338" />
  <metadata
     id="metadata2341">
    <rdf:RDF>
      <cc:Work
         rdf:about="">
        <dc:format>image/svg+xml</dc:format>
        <dc:type
           rdf:resource="http://purl.org/dc/dcmitype/StillImage" />
        <dc:title></dc:title>
      </cc:Work>
    </rdf:RDF>
  </metadata>
  <path
     style="fill:#7f8079;fill-opacity:1;stroke-width:0.01975104"
     d="M 1.9213794,2.3944178 V 2.0981522 h 0.118512 c 0.06583,0 0.118512,0.0088 0.118512,0.019762 0,0.010872 0.02222,0.019762 0.04937,0.019762 0.02716,0 0.04937,0.00792 0.04937,0.017605 0,0.00967 0.02222,0.023186 0.04937,0.030001 0.0319,0.008 0.04937,0.026258 0.04937,0.051518 0,0.021516 0.0089,0.039127 0.0197,0.039127 0.01104,0 0.0197,0.052669 0.0197,0.118506 0,0.065837 -0.0089,0.118506 -0.0197,0.118506 -0.01068,0 -0.0197,0.013982 -0.0197,0.031034 0,0.047873 -0.05182,0.088741 -0.128188,0.1011384 -0.03814,0.00619 -0.06932,0.018973 -0.06932,0.028418 0,0.00943 -0.05333,0.017177 -0.118512,0.017177 h -0.118512 z"
     id="path4526"
     inkscape:connector-curvature="0"
     inkscape:transform-center-x="-0.03942503"
     inkscape:transform-center-y="-0.15799676" />
  <path
     style="fill:#7f8079;fill-opacity:1;stroke-width:0.01975104"
     d="M 0.57710368,2.4831837 V 0.54758168 H 2.5324567 4.4878102 V 2.4831837 4.4187859 H 2.5324567 0.57710368 Z M 2.1139927,3.4269851 c 0.0052,-0.044922 -0.0029,-0.055562 -0.04937,-0.065558 -0.125021,-0.026846 -0.137866,-0.039638 -0.151183,-0.1506195 -0.0071,-0.058008 -0.01267,-0.1787919 -0.01282,-0.2684117 -1.63e-4,-0.1562751 0.0016,-0.1628899 0.04427,-0.1615576 0.08465,0.00266 0.114636,0.029719 0.211518,0.1908853 0.144909,0.2410652 0.248874,0.3737269 0.352424,0.4497075 0.08537,0.062634 0.104208,0.068117 0.235975,0.068567 l 0.143194,4.853e-4 v -0.057715 c 0,-0.04931 -0.01068,-0.061181 -0.07406,-0.081469 -0.04073,-0.013061 -0.10548,-0.05597 -0.14387,-0.095351 -0.07508,-0.077011 -0.315346,-0.3904116 -0.315346,-0.4113315 0,-0.00697 -0.01469,-0.02893 -0.03268,-0.048796 -0.03059,-0.03379 -0.03025,-0.036144 0.005,-0.036527 0.07111,-7.466e-4 0.22309,-0.158817 0.265236,-0.2758298 0.045,-0.1249257 0.04726,-0.1587013 0.01693,-0.2556431 -0.04037,-0.1296619 -0.0852,-0.2036191 -0.135533,-0.223562 -0.02746,-0.010872 -0.06767,-0.026885 -0.0894,-0.035574 -0.02174,-0.0087 -0.06617,-0.022499 -0.09877,-0.030686 -0.07865,-0.019762 -0.587327,-0.018912 -0.706097,0.00119 -0.08107,0.013709 -0.09383,0.022222 -0.09383,0.062674 0,0.035286 0.01104,0.046884 0.04444,0.047112 0.02443,1.641e-4 0.05426,0.00683 0.06626,0.014809 0.07015,0.046642 0.09908,0.381145 0.06756,0.7813092 -0.03839,0.4875469 -0.04003,0.4951965 -0.109296,0.5070636 -0.04976,0.00854 -0.06006,0.020321 -0.06532,0.074742 l -0.0062,0.064613 0.312368,-0.00546 0.312368,-0.00546 z m 1.132027,-1.1497606 c 0.08084,-0.034226 0.111744,-0.081503 0.126288,-0.1931372 0.006,-0.046642 0.0152,-0.1181351 0.02032,-0.1588706 l 0.0094,-0.074068 h -0.168134 c -0.166164,0 -0.168135,5.599e-4 -0.168135,0.049379 0,0.044387 0.0079,0.049379 0.0785,0.049379 0.07768,0 0.0784,6.719e-4 0.0674,0.064189 -0.01908,0.1103964 -0.02222,0.1135704 -0.113256,0.1135704 -0.04789,0 -0.09622,-0.011112 -0.1074,-0.02469 -0.06176,-0.075037 -0.04987,-0.3943762 0.01742,-0.4665478 0.05014,-0.053812 0.14536,-0.055081 0.190337,-0.00253 0.05768,0.067359 0.163296,0.040388 0.163296,-0.041696 0,-0.086685 -0.234818,-0.200905 -0.326834,-0.1589789 -0.02766,0.012606 -0.06542,0.023078 -0.08395,0.023272 -0.01846,1.97e-4 -0.06252,0.035149 -0.09784,0.077676 l -0.06418,0.07732 v 0.2679575 0.2679676 l 0.079,0.079004 c 0.07424,0.074249 0.08598,0.079004 0.195105,0.079004 0.06385,0 0.146068,-0.012686 0.182705,-0.0282 z"
     id="path4530"
     inkscape:connector-curvature="0" />
</svg>
