<?xml version="1.0" encoding="UTF-8" standalone="no"?>
<svg
   xmlns:dc="http://purl.org/dc/elements/1.1/"
   xmlns:cc="http://creativecommons.org/ns#"
   xmlns:rdf="http://www.w3.org/1999/02/22-rdf-syntax-ns#"
   xmlns:svg="http://www.w3.org/2000/svg"
   xmlns="http://www.w3.org/2000/svg"
   xmlns:sodipodi="http://sodipodi.sourceforge.net/DTD/sodipodi-0.dtd"
   xmlns:inkscape="http://www.inkscape.org/namespaces/inkscape"
   id="svg2344"
   version="1.1"
   viewBox="0 0 7.5 7.5"
   height="7.5mm"
   width="7.5mm"
   sodipodi:docname="research.svg"
   inkscape:version="0.92.2 5c3e80d, 2017-08-06">
  <sodipodi:namedview
     pagecolor="#ffffff"
     bordercolor="#666666"
     borderopacity="1"
     objecttolerance="10"
     gridtolerance="10"
     guidetolerance="10"
     inkscape:pageopacity="0"
     inkscape:pageshadow="2"
     inkscape:window-width="1440"
     inkscape:window-height="776"
     id="namedview15"
     showgrid="false"
     inkscape:zoom="5"
     inkscape:cx="67.539351"
     inkscape:cy="32.919204"
     inkscape:window-x="0"
     inkscape:window-y="1"
     inkscape:window-maximized="1"
     inkscape:current-layer="svg2344">
    <inkscape:grid
       type="xygrid"
       id="grid17" />
  </sodipodi:namedview>
  <defs
     id="defs2338" />
  <metadata
     id="metadata2341">
    <rdf:RDF>
      <cc:Work
         rdf:about="">
        <dc:format>image/svg+xml</dc:format>
        <dc:type
           rdf:resource="http://purl.org/dc/dcmitype/StillImage" />
        <dc:title></dc:title>
      </cc:Work>
    </rdf:RDF>
  </metadata>
  <path
     style="fill:#7f8079;fill-opacity:1;stroke-width:0.03850481"
     d="M 2.5008364,3.6177245 V 3.0401524 h 0.2310289 c 0.128349,0 0.2310289,0.017114 0.2310289,0.038507 0,0.021174 0.04332,0.038507 0.096256,0.038507 0.052948,0 0.096268,0.015449 0.096268,0.034331 0,0.018882 0.04332,0.045201 0.096256,0.058489 0.062154,0.0156 0.096256,0.05119 0.096256,0.1004367 0,0.041948 0.01733,0.076275 0.038505,0.076275 0.021393,0 0.038505,0.1026806 0.038505,0.2310289 0,0.1283494 -0.017112,0.2310289 -0.038505,0.2310289 -0.021174,0 -0.038505,0.027229 -0.038505,0.060504 0,0.093331 -0.1009733,0.1730031 -0.2498884,0.1971683 -0.074341,0.012067 -0.1351597,0.036994 -0.1351597,0.055403 0,0.01841 -0.1039574,0.033465 -0.2310289,0.033465 H 2.5008243 Z"
     id="path4526"
     inkscape:connector-curvature="0"
     inkscape:transform-center-x="-0.076995188"
     inkscape:transform-center-y="-0.30803834" />
  <path
     style="fill:#7f8079;fill-opacity:1;stroke-width:0.03850481"
     d="M -0.00197766,3.8487621 V 0.0752902 H 3.8099988 7.6219753 V 3.8487621 7.6222339 H 3.8099988 -0.00197766 Z M 2.9941989,5.6887103 C 3.0042647,5.6011353 2.9886202,5.5803897 2.8979429,5.5609044 2.6542251,5.5085645 2.6291902,5.4836267 2.6032094,5.2672699 2.5896266,5.154187 2.5783723,4.9187146 2.5781905,4.7439993 2.5778703,4.4393418 2.5813405,4.4264456 2.66449,4.4290404 c 0.1649958,0.00517 0.2234831,0.057935 0.4123544,0.3721311 0.282504,0.4699586 0.4851824,0.7285836 0.6870544,0.8767085 0.1664159,0.1221083 0.2031926,0.1327946 0.4600348,0.1336729 l 0.2791605,9.46e-4 V 5.6999848 c 0,-0.096133 -0.021041,-0.1192741 -0.1443937,-0.1588264 C 4.2792894,5.5156907 4.1530712,5.4320461 4.0782276,5.3552736 3.9318596,5.2051369 3.4634639,4.5941633 3.4634639,4.5533793 c 0,-0.013592 -0.028682,-0.056401 -0.06373,-0.095128 -0.059619,-0.065874 -0.058988,-0.070466 0.00958,-0.071208 C 3.547943,4.3855833 3.8442263,4.0774294 3.9263962,3.8493112 4.0141262,3.605766 4.0185162,3.5399246 3.9596742,3.3509328 3.8809628,3.0981542 3.7935563,2.953976 3.6954473,2.9150971 3.6419529,2.8938934 3.5635291,2.8626844 3.5211739,2.8457448 3.4788125,2.8287978 3.3921822,2.801882 3.3286498,2.7859247 3.1753049,2.747417 2.1836501,2.7490697 1.9521034,2.7882557 1.7940578,2.814975 1.7692049,2.8315797 1.7692049,2.9104354 c 0,0.068792 0.021332,0.091398 0.086639,0.091843 0.047649,3.202e-4 0.1057881,0.013316 0.1291869,0.02888 0.1367728,0.09093 0.1931608,0.7430454 0.1317047,1.5231685 -0.074876,0.9504768 -0.078088,0.96539 -0.2130704,0.9885249 -0.09702,0.016627 -0.1171153,0.039621 -0.1273437,0.1457083 l -0.01214,0.1259616 0.6089642,-0.010612 0.6089642,-0.010612 z M 5.2010958,3.4472426 C 5.3586891,3.3805172 5.4189457,3.2883538 5.4472683,3.070721 5.4591533,2.979791 5.476956,2.840417 5.4869499,2.7610012 L 5.5051165,2.6166078 H 5.1773672 c -0.3239268,0 -0.3277469,0.00109 -0.3277469,0.096262 0,0.086534 0.015475,0.096262 0.1530575,0.096262 0.1514446,0 0.1528283,0.00131 0.1314342,0.1251405 C 5.096929,3.1494893 5.090757,3.155675 4.9133006,3.155675 4.8199316,3.155675 4.7257087,3.13402 4.7039192,3.107541 4.5835174,2.9612582 4.6066812,2.3387021 4.7377542,2.1980029 4.8354902,2.0930974 5.0211267,2.0906216 5.1088327,2.1930529 5.2212667,2.3243691 5.4271893,2.2717889 5.4271893,2.1117639 5.4271893,1.9427701 4.969415,1.7200983 4.790025,1.8018331 4.736094,1.8264051 4.6624667,1.8468231 4.6264032,1.8472021 4.5903362,1.8475862 4.504517,1.9157251 4.435691,1.9986318 L 4.3105614,2.1493682 v 0.5224046 0.5224047 l 0.154018,0.1540194 c 0.1447526,0.1447514 0.1676384,0.1540187 0.3803463,0.1540187 0.1244791,0 0.2847561,-0.02474 0.3561701,-0.054973 z"
     id="path4530"
     inkscape:connector-curvature="0" />
</svg>
