<?xml version="1.0" encoding="UTF-8" standalone="no"?>
<svg
   xmlns:dc="http://purl.org/dc/elements/1.1/"
   xmlns:cc="http://creativecommons.org/ns#"
   xmlns:rdf="http://www.w3.org/1999/02/22-rdf-syntax-ns#"
   xmlns:svg="http://www.w3.org/2000/svg"
   xmlns="http://www.w3.org/2000/svg"
   xmlns:sodipodi="http://sodipodi.sourceforge.net/DTD/sodipodi-0.dtd"
   xmlns:inkscape="http://www.inkscape.org/namespaces/inkscape"
   id="svg2344"
   version="1.1"
   viewBox="0 0 10 10"
   height="10mm"
   width="10mm"
   sodipodi:docname="research.svg"
   inkscape:version="0.92.2 5c3e80d, 2017-08-06">
  <sodipodi:namedview
     pagecolor="#ffffff"
     bordercolor="#666666"
     borderopacity="1"
     objecttolerance="10"
     gridtolerance="10"
     guidetolerance="10"
     inkscape:pageopacity="0"
     inkscape:pageshadow="2"
     inkscape:window-width="1440"
     inkscape:window-height="776"
     id="namedview15"
     showgrid="false"
     inkscape:zoom="5"
     inkscape:cx="67.539351"
     inkscape:cy="32.919204"
     inkscape:window-x="0"
     inkscape:window-y="1"
     inkscape:window-maximized="1"
     inkscape:current-layer="svg2344">
    <inkscape:grid
       type="xygrid"
       id="grid17" />
  </sodipodi:namedview>
  <defs
     id="defs2338" />
  <metadata
     id="metadata2341">
    <rdf:RDF>
      <cc:Work
         rdf:about="">
        <dc:format>image/svg+xml</dc:format>
        <dc:type
           rdf:resource="http://purl.org/dc/dcmitype/StillImage" />
        <dc:title></dc:title>
      </cc:Work>
    </rdf:RDF>
  </metadata>
  <path
     style="fill:#7f8079;fill-opacity:1;stroke-width:0.05291667"
     d="m 3.4395834,4.9199999 v -0.79375 h 0.3175 c 0.176389,0 0.3175,0.02352 0.3175,0.05292 0,0.0291 0.05953,0.05292 0.132292,0.05292 0.07276,0 0.132292,0.02123 0.132292,0.04718 0,0.02595 0.05953,0.06212 0.132291,0.08038 0.08542,0.02144 0.132292,0.07035 0.132292,0.138029 0,0.05765 0.02381,0.104825 0.05292,0.104825 0.0294,0 0.05292,0.141111 0.05292,0.3175 0,0.176389 -0.02352,0.3175 -0.05292,0.3175 -0.0291,0 -0.05292,0.03742 -0.05292,0.08315 0,0.128264 -0.138768,0.237756 -0.343418,0.270966 -0.102162,0.01658 -0.185749,0.05084 -0.185749,0.07614 0,0.0253 -0.142874,0.04599 -0.3175,0.04599 h -0.3175 z"
     id="path4526"
     inkscape:connector-curvature="0"
     inkscape:transform-center-x="-0.10583333"
     inkscape:transform-center-y="-0.42333313" />
  <path
     style="fill:#7f8079;fill-opacity:1;stroke-width:0.05291667"
     d="m -0.1058342,5.1845953 v -5.18583373 h 5.23875 5.2387492 V 5.1845953 10.370429 h -5.2387492 -5.23875 z m 4.117607,2.528617 c 0.01388,-0.120354 -0.0076,-0.148864 -0.132291,-0.175642 -0.334938,-0.07193 -0.369342,-0.106201 -0.405048,-0.403538 -0.01866,-0.155409 -0.03414,-0.479015 -0.03439,-0.719124 -4.4e-4,-0.418687 0.0044,-0.43641 0.118603,-0.432844 0.226753,0.0071 0.307131,0.07962 0.566694,0.511415 0.388242,0.645858 0.66678,1.001283 0.94421,1.204849 0.228703,0.167812 0.279245,0.182498 0.63222,0.183705 l 0.383646,0.0013 v -0.154626 c 0,-0.132113 -0.02892,-0.163917 -0.198437,-0.218273 -0.109141,-0.035 -0.282594,-0.149952 -0.385451,-0.255459 -0.201152,-0.206331 -0.844862,-1.045984 -0.844862,-1.102033 0,-0.01868 -0.03941,-0.07751 -0.08758,-0.130734 -0.08193,-0.09053 -0.08107,-0.09684 0.01323,-0.09786 0.190511,-0.002 0.597689,-0.425498 0.710614,-0.738998 0.12056,-0.334701 0.126602,-0.425186 0.04573,-0.684915 -0.108166,-0.347391 -0.228288,-0.545533 -0.363118,-0.598964 -0.07352,-0.02914 -0.181294,-0.07203 -0.239502,-0.09531 -0.05821,-0.02329 -0.177271,-0.06028 -0.264584,-0.08221 -0.21074,-0.05292 -1.573557,-0.05065 -1.89177,0.0032 -0.2172,0.03672 -0.251355,0.05954 -0.251355,0.16791 0,0.09454 0.02931,0.125609 0.119063,0.12622 0.06548,4.4e-4 0.145377,0.0183 0.17754,0.03969 0.187965,0.124964 0.265457,1.021158 0.180999,2.093271 -0.102901,1.306228 -0.107319,1.326723 -0.29282,1.358517 -0.133341,0.02285 -0.160956,0.05445 -0.175006,0.200245 l -0.01668,0.173109 0.836891,-0.01459 0.836892,-0.01459 z m 3.03291,-3.08042 c 0.216578,-0.0917 0.299388,-0.218359 0.338312,-0.517449 0.01626,-0.124963 0.0408,-0.316504 0.05454,-0.425644 l 0.02497,-0.198438 h -0.450423 c -0.445167,0 -0.450417,0.0015 -0.450417,0.132292 0,0.118924 0.02126,0.132292 0.210344,0.132292 0.208128,0 0.210031,0.0018 0.180629,0.171979 -0.0511,0.29577 -0.05958,0.304271 -0.303458,0.304271 -0.128319,0 -0.257806,-0.02976 -0.28775,-0.06615 -0.16547,-0.201036 -0.133639,-1.0566069 0.0465,-1.2499679 0.134315,-0.14417 0.389435,-0.147574 0.509967,-0.0068 0.15452,0.180466 0.437514,0.108207 0.437514,-0.111713 0,-0.232246 -0.629114,-0.538261 -0.875646,-0.425934 -0.07411,0.03377 -0.175302,0.06183 -0.224864,0.06235 -0.04956,5.28e-4 -0.167506,0.09417 -0.262094,0.208108 l -0.171975,0.207156 v 0.7179339 0.717934 l 0.211666,0.211667 c 0.198931,0.19893 0.230383,0.211666 0.522705,0.211666 0.17107,0 0.391336,-0.034 0.489479,-0.07555 z"
     id="path4530"
     inkscape:connector-curvature="0" />
</svg>
