<?xml version="1.0" encoding="UTF-8" standalone="no"?>
<svg
   xmlns:dc="http://purl.org/dc/elements/1.1/"
   xmlns:cc="http://creativecommons.org/ns#"
   xmlns:rdf="http://www.w3.org/1999/02/22-rdf-syntax-ns#"
   xmlns:svg="http://www.w3.org/2000/svg"
   xmlns="http://www.w3.org/2000/svg"
   xmlns:sodipodi="http://sodipodi.sourceforge.net/DTD/sodipodi-0.dtd"
   xmlns:inkscape="http://www.inkscape.org/namespaces/inkscape"
   id="svg2344"
   version="1.1"
   viewBox="0 0 6 6"
   height="6mm"
   width="6mm"
   sodipodi:docname="research.svg"
   inkscape:version="0.92.2 5c3e80d, 2017-08-06">
  <sodipodi:namedview
     pagecolor="#ffffff"
     bordercolor="#666666"
     borderopacity="1"
     objecttolerance="10"
     gridtolerance="10"
     guidetolerance="10"
     inkscape:pageopacity="0"
     inkscape:pageshadow="2"
     inkscape:window-width="1440"
     inkscape:window-height="776"
     id="namedview15"
     showgrid="false"
     inkscape:zoom="5"
     inkscape:cx="67.539351"
     inkscape:cy="32.919204"
     inkscape:window-x="0"
     inkscape:window-y="1"
     inkscape:window-maximized="1"
     inkscape:current-layer="svg2344">
    <inkscape:grid
       type="xygrid"
       id="grid17" />
  </sodipodi:namedview>
  <defs
     id="defs2338" />
  <metadata
     id="metadata2341">
    <rdf:RDF>
      <cc:Work
         rdf:about="">
        <dc:format>image/svg+xml</dc:format>
        <dc:type
           rdf:resource="http://purl.org/dc/dcmitype/StillImage" />
        <dc:title></dc:title>
      </cc:Work>
    </rdf:RDF>
  </metadata>
  <path
     style="fill:#7f8079;fill-opacity:1;stroke-width:0.03175"
     d="m 1.9367498,2.8990882 v -0.47625 h 0.1905 c 0.105833,0 0.1905,0.014112 0.1905,0.031752 0,0.01746 0.03572,0.031752 0.07937,0.031752 0.04366,0 0.07938,0.012738 0.07938,0.028308 0,0.01557 0.03572,0.037272 0.07937,0.048228 0.05125,0.012864 0.07937,0.04221 0.07937,0.082817 0,0.03459 0.01429,0.062895 0.03175,0.062895 0.01764,0 0.03175,0.084667 0.03175,0.1905 0,0.1058334 -0.01411,0.1905 -0.03175,0.1905 -0.01746,0 -0.03175,0.022452 -0.03175,0.04989 0,0.076958 -0.08326,0.1426536 -0.206051,0.1625796 -0.0613,0.00995 -0.111449,0.030504 -0.111449,0.045684 0,0.01518 -0.08572,0.027594 -0.1905,0.027594 h -0.1905 z"
     id="path4526"
     inkscape:connector-curvature="0"
     inkscape:transform-center-x="-0.063487898"
     inkscape:transform-center-y="-0.25399989" />
  <path
     style="fill:#7f8079;fill-opacity:1;stroke-width:0.03175"
     d="m -0.12700122,3.0895954 v -3.11150019 h 3.14325002 3.14325 V 3.0895954 6.2010956 h -3.14325 -3.14325002 z M 2.3435628,4.6067656 c 0.0083,-0.072212 -0.0046,-0.089318 -0.07937,-0.1053852 -0.200963,-0.043158 -0.221606,-0.063721 -0.243029,-0.2421228 -0.0112,-0.093245 -0.02048,-0.287409 -0.02063,-0.4314744 -2.64e-4,-0.2512122 0.0026,-0.261846 0.07116,-0.2597064 0.136051,0.00426 0.184278,0.047772 0.340016,0.306849 0.232945,0.3875148 0.400068,0.6007698 0.566526,0.7229094 0.137222,0.1006872 0.167547,0.1094988 0.379332,0.110223 l 0.230188,7.8e-4 v -0.092776 c 0,-0.079268 -0.01735,-0.09835 -0.119063,-0.1309638 -0.06548,-0.021 -0.169556,-0.089971 -0.23127,-0.1532754 -0.120691,-0.1237986 -0.506917,-0.6275904 -0.506917,-0.6612198 0,-0.011208 -0.02365,-0.046506 -0.05255,-0.07844 -0.04916,-0.054318 -0.04864,-0.058104 0.0079,-0.058716 0.114306,-0.0012 0.358613,-0.2552988 0.426368,-0.4433988 0.07234,-0.2008206 0.07596,-0.2551116 0.02744,-0.410949 -0.0649,-0.2084345 -0.136973,-0.3273197 -0.217871,-0.3593783 -0.04411,-0.017484 -0.108776,-0.043218 -0.143701,-0.057186 -0.03493,-0.013974 -0.106363,-0.036168 -0.15875,-0.049326 -0.126444,-0.031752 -0.944135,-0.03039 -1.135062,0.00192 -0.13032,0.022032 -0.150813,0.035724 -0.150813,0.100746 0,0.056724 0.01759,0.075365 0.07144,0.075732 0.03929,2.64e-4 0.08723,0.01098 0.106524,0.023814 0.112779,0.074978 0.159275,0.6126947 0.1086,1.2559625 -0.06174,0.7837368 -0.06439,0.7960338 -0.175692,0.8151102 -0.08,0.01371 -0.09657,0.03267 -0.105004,0.120147 l -0.01001,0.1038654 0.502135,-0.00875 0.502135,-0.00875 z m 1.819746,-1.848252 c 0.129947,-0.05502 0.179633,-0.1310154 0.202987,-0.3104693 0.0098,-0.074978 0.02448,-0.1899024 0.03272,-0.2553864 l 0.01498,-0.1190628 h -0.270253 c -0.267101,0 -0.270251,9e-4 -0.270251,0.079375 0,0.071354 0.01276,0.079375 0.126207,0.079375 0.124877,0 0.126018,0.00108 0.108377,0.1031874 -0.03066,0.177462 -0.03575,0.1825626 -0.182075,0.1825626 -0.07699,0 -0.154683,-0.017856 -0.17265,-0.03969 -0.09928,-0.1206216 -0.08018,-0.6339642 0.0279,-0.7499808 0.08059,-0.086502 0.233661,-0.088544 0.305981,-0.00408 0.09271,0.1082796 0.262508,0.064924 0.262508,-0.067028 0,-0.1393476 -0.377468,-0.3229566 -0.525388,-0.2555604 -0.04447,0.020262 -0.105181,0.037098 -0.134918,0.03741 -0.02974,3.168e-4 -0.100504,0.056502 -0.157256,0.1248648 l -0.103179,0.1242936 v 0.4307604 0.4307604 l 0.126999,0.1270001 c 0.119359,0.119358 0.13823,0.1269996 0.313623,0.1269996 0.102642,0 0.234802,-0.0204 0.293688,-0.04533 z"
     id="path4530"
     inkscape:connector-curvature="0" />
</svg>
